<svg width="1920" height="1080" viewBox="0 0 1920 1080" fill="none" xmlns="http://www.w3.org/2000/svg">
<path d="M0 0H1920V1080H0V0Z" fill="#EEEEEE"/>
<path d="M6 6L1914 1074" stroke="#AAAAAA" stroke-width="2"/>
<path d="M1914 6L5.99999 1074" stroke="#AAAAAA" stroke-width="2"/>
<path d="M0 0V-2H-2V0H0ZM1920 0H1922V-2H1920V0ZM1920 1080V1082H1922V1080H1920ZM0 1080H-2V1082H0V1080ZM0 2H1920V-2H0V2ZM1918 0V1080H1922V0H1918ZM1920 1078H0V1082H1920V1078ZM2 1080V0H-2V1080H2Z" fill="#AAAAAA"/>
</svg>
